<svg width="40" height="40" viewBox="0 0 40 40" fill="none" xmlns="http://www.w3.org/2000/svg">
<path d="M20.3969 32.8068L37.0451 20.896C37.1936 20.7896 37.3146 20.6495 37.3982 20.487C37.4817 20.3246 37.5254 20.1447 37.5256 19.962V19.9593C37.5252 19.776 37.4811 19.5954 37.3969 19.4326C37.3127 19.2697 37.1908 19.1293 37.0415 19.0231L20.3932 7.189C20.2211 7.06666 20.0186 6.99413 19.808 6.97937C19.5973 6.96461 19.3867 7.0082 19.1992 7.10535C19.0114 7.20195 18.854 7.34851 18.7442 7.52886C18.6345 7.70922 18.5766 7.91638 18.577 8.12752V13.6969L3.62432 13.6964C3.47329 13.6964 3.32372 13.7261 3.18417 13.7839C3.04462 13.8417 2.91784 13.9264 2.81106 14.0332C2.70428 14.14 2.6196 14.2668 2.56187 14.4064C2.50414 14.546 2.47449 14.6956 2.47461 14.8466L2.47507 25.1511C2.47501 25.3021 2.50472 25.4517 2.5625 25.5913C2.62028 25.7309 2.70499 25.8577 2.81181 25.9645C2.91863 26.0713 3.04544 26.156 3.18502 26.2138C3.32459 26.2716 3.47418 26.3013 3.62524 26.3012H18.5766V31.8724C18.5766 32.3021 18.8188 32.6967 19.201 32.8951C19.3891 32.992 19.6004 33.035 19.8114 33.0194C20.0224 33.0039 20.225 32.9303 20.3969 32.8068Z" fill="#3A5A9B"/>
</svg>
