<svg width="16" height="16" viewBox="0 0 16 16" fill="none" xmlns="http://www.w3.org/2000/svg">
<path d="M6.47683 2.33486L11.6588 7.65086C11.7498 7.74423 11.8008 7.86946 11.8008 7.99986C11.8008 8.13025 11.7498 8.25548 11.6588 8.34886L6.47683 13.6669C6.43443 13.7104 6.38374 13.745 6.32775 13.7686C6.27176 13.7923 6.2116 13.8044 6.15083 13.8044C6.09006 13.8044 6.0299 13.7923 5.97391 13.7686C5.91792 13.745 5.86723 13.7104 5.82483 13.6669C5.73761 13.5776 5.68878 13.4577 5.68878 13.3329C5.68878 13.208 5.73761 13.0882 5.82483 12.9989L10.6978 7.99986L5.82483 3.00186C5.73791 2.9126 5.68927 2.79294 5.68927 2.66836C5.68927 2.54377 5.73791 2.42411 5.82483 2.33486C5.86723 2.29131 5.91792 2.2567 5.97391 2.23307C6.0299 2.20944 6.09006 2.19727 6.15083 2.19727C6.2116 2.19727 6.27176 2.20944 6.32775 2.23307C6.38374 2.2567 6.43443 2.29131 6.47683 2.33486Z" fill="#408BEB"/>
</svg>
