<svg width="16" height="16" viewBox="0 0 16 16" fill="none" xmlns="http://www.w3.org/2000/svg">
<path d="M9.52219 2.3329L4.34019 7.6489C4.24918 7.74228 4.19824 7.86751 4.19824 7.9979C4.19824 8.1283 4.24918 8.25353 4.34019 8.3469L9.52219 13.6649C9.56459 13.7084 9.61528 13.7431 9.67127 13.7667C9.72726 13.7903 9.78742 13.8025 9.84819 13.8025C9.90897 13.8025 9.96913 13.7903 10.0251 13.7667C10.0811 13.7431 10.1318 13.7084 10.1742 13.6649C10.2614 13.5756 10.3102 13.4557 10.3102 13.3309C10.3102 13.2061 10.2614 13.0862 10.1742 12.9969L5.30119 7.9979L10.1742 2.9999C10.2611 2.91065 10.3098 2.79099 10.3098 2.6664C10.3098 2.54182 10.2611 2.42215 10.1742 2.3329C10.1318 2.28936 10.0811 2.25475 10.0251 2.23112C9.96913 2.20749 9.90897 2.19531 9.84819 2.19531C9.78742 2.19531 9.72726 2.20749 9.67127 2.23112C9.61528 2.25475 9.56459 2.28936 9.52219 2.3329Z" fill="#408BEB"/>
</svg>
