<svg width="16" height="16" viewBox="0 0 16 16" fill="none" xmlns="http://www.w3.org/2000/svg">
<path d="M6.47781 2.3329L11.6598 7.6489C11.7508 7.74228 11.8018 7.86751 11.8018 7.9979C11.8018 8.1283 11.7508 8.25353 11.6598 8.3469L6.47781 13.6649C6.43541 13.7084 6.38472 13.7431 6.32873 13.7667C6.27274 13.7903 6.21258 13.8025 6.15181 13.8025C6.09103 13.8025 6.03087 13.7903 5.97488 13.7667C5.91889 13.7431 5.8682 13.7084 5.82581 13.6649C5.73858 13.5756 5.68975 13.4557 5.68975 13.3309C5.68975 13.2061 5.73858 13.0862 5.82581 12.9969L10.6988 7.9979L5.82581 2.9999C5.73888 2.91065 5.69024 2.79099 5.69024 2.6664C5.69024 2.54182 5.73888 2.42215 5.82581 2.3329C5.8682 2.28936 5.91889 2.25475 5.97488 2.23112C6.03087 2.20749 6.09103 2.19531 6.15181 2.19531C6.21258 2.19531 6.27274 2.20749 6.32873 2.23112C6.38472 2.25475 6.43541 2.28936 6.47781 2.3329Z" fill="#222222"/>
</svg>
