<svg width="16" height="16" viewBox="0 0 16 16" fill="none" xmlns="http://www.w3.org/2000/svg">
<path d="M12.998 5.32455L7.99995 10.1966L3.00195 5.32455C2.91266 5.23733 2.79278 5.1885 2.66795 5.1885C2.54313 5.1885 2.42325 5.23733 2.33395 5.32455C2.29072 5.36692 2.25637 5.41748 2.23292 5.47329C2.20947 5.5291 2.19739 5.58902 2.19739 5.64955C2.19739 5.71009 2.20947 5.77001 2.23292 5.82582C2.25637 5.88162 2.29072 5.93219 2.33395 5.97455L7.65095 11.1586C7.74433 11.2496 7.86956 11.3005 7.99995 11.3005C8.13035 11.3005 8.25558 11.2496 8.34895 11.1586L13.666 5.97555C13.7095 5.93316 13.7441 5.88247 13.7677 5.82648C13.7914 5.77048 13.8035 5.71033 13.8035 5.64955C13.8035 5.58878 13.7914 5.52862 13.7677 5.47263C13.7441 5.41664 13.7095 5.36595 13.666 5.32355C13.5767 5.23633 13.4568 5.1875 13.332 5.1875C13.2071 5.1875 13.0873 5.23633 12.998 5.32355V5.32455Z" fill="#408BEB"/>
</svg>
