<svg width="16" height="16" viewBox="0 0 16 16" fill="none" xmlns="http://www.w3.org/2000/svg">
<g clip-path="url(#clip0_169_8916)">
<path d="M15 1.50039L10.9965 1.50041V0.503906C10.9965 0.227656 10.7727 0.00390625 10.4965 0.00390625C10.2203 0.00390625 9.9965 0.227656 9.9965 0.503906V1.50016H5.9965V0.503906C5.9965 0.227656 5.77275 0.00390625 5.4965 0.00390625C5.22025 0.00390625 4.9965 0.227656 4.9965 0.503906V1.50016H1C0.44775 1.50016 0 1.94791 0 2.50016V15.0002C0 15.5524 0.44775 16.0002 1 16.0002H15C15.5522 16.0002 16 15.5524 16 15.0002V2.50016C16 1.94814 15.5522 1.50039 15 1.50039ZM15 15.0002H1V2.50016H4.9965V3.00391C4.9965 3.28014 5.22025 3.50391 5.4965 3.50391C5.77275 3.50391 5.9965 3.28014 5.9965 3.00391V2.50041H9.9965V3.00416C9.9965 3.28041 10.2203 3.50416 10.4965 3.50416C10.7727 3.50416 10.9965 3.28041 10.9965 3.00416V2.50041H15V15.0002ZM11.5 8.00039H12.5C12.776 8.00039 13 7.77639 13 7.50039V6.50039C13 6.22439 12.776 6.00039 12.5 6.00039H11.5C11.224 6.00039 11 6.22439 11 6.50039V7.50039C11 7.77639 11.224 8.00039 11.5 8.00039ZM11.5 12.0001H12.5C12.776 12.0001 13 11.7764 13 11.5001V10.5001C13 10.2241 12.776 10.0001 12.5 10.0001H11.5C11.224 10.0001 11 10.2241 11 10.5001V11.5001C11 11.7766 11.224 12.0001 11.5 12.0001ZM8.5 10.0001H7.5C7.224 10.0001 7 10.2241 7 10.5001V11.5001C7 11.7764 7.224 12.0001 7.5 12.0001H8.5C8.776 12.0001 9 11.7764 9 11.5001V10.5001C9 10.2244 8.776 10.0001 8.5 10.0001ZM8.5 6.00039H7.5C7.224 6.00039 7 6.22439 7 6.50039V7.50039C7 7.77639 7.224 8.00039 7.5 8.00039H8.5C8.776 8.00039 9 7.77639 9 7.50039V6.50039C9 6.22414 8.776 6.00039 8.5 6.00039ZM4.5 6.00039H3.5C3.224 6.00039 3 6.22439 3 6.50039V7.50039C3 7.77639 3.224 8.00039 3.5 8.00039H4.5C4.776 8.00039 5 7.77639 5 7.50039V6.50039C5 6.22414 4.776 6.00039 4.5 6.00039ZM4.5 10.0001H3.5C3.224 10.0001 3 10.2241 3 10.5001V11.5001C3 11.7764 3.224 12.0001 3.5 12.0001H4.5C4.776 12.0001 5 11.7764 5 11.5001V10.5001C5 10.2244 4.776 10.0001 4.5 10.0001Z" fill="#B6B6B6"/>
</g>
<defs>
<clipPath id="clip0_169_8916">
<rect width="16" height="16" fill="white"/>
</clipPath>
</defs>
</svg>
