<svg width="15" height="15" viewBox="0 0 15 15" fill="none" xmlns="http://www.w3.org/2000/svg">
<path d="M10.2553 3.20622L11.7949 4.74586M11.2451 1.84986L7.07998 6.01495C6.86477 6.22986 6.718 6.50367 6.65816 6.80186L6.27344 8.72768L8.19926 8.34223C8.49744 8.28259 8.77089 8.13641 8.98616 7.92113L13.1513 3.75604C13.2764 3.63088 13.3757 3.48229 13.4434 3.31876C13.5112 3.15523 13.546 2.97996 13.546 2.80295C13.546 2.62595 13.5112 2.45067 13.4434 2.28714C13.3757 2.12361 13.2764 1.97502 13.1513 1.84986C13.0261 1.7247 12.8775 1.62542 12.714 1.55768C12.5504 1.48994 12.3752 1.45508 12.1982 1.45508C12.0212 1.45508 11.8459 1.48994 11.6824 1.55768C11.5188 1.62542 11.3702 1.7247 11.2451 1.84986Z" stroke="#B6B6B6" stroke-width="2" stroke-linecap="round" stroke-linejoin="round"/>
<path d="M12.0907 10.1829V12.3647C12.0907 12.7505 11.9375 13.1204 11.6647 13.3932C11.3919 13.666 11.022 13.8192 10.6362 13.8192H2.63619C2.25042 13.8192 1.88045 13.666 1.60767 13.3932C1.33489 13.1204 1.18164 12.7505 1.18164 12.3647V4.3647C1.18164 3.97893 1.33489 3.60896 1.60767 3.33618C1.88045 3.0634 2.25042 2.91016 2.63619 2.91016H4.818" stroke="#B6B6B6" stroke-width="2" stroke-linecap="round" stroke-linejoin="round"/>
</svg>
