<svg width="18" height="14" viewBox="0 0 18 14" fill="none" xmlns="http://www.w3.org/2000/svg">
<path d="M17.125 2.625V11.375C17.125 11.7065 16.9933 12.0245 16.7589 12.2589C16.5245 12.4933 16.2065 12.625 15.875 12.625H2.125C1.79348 12.625 1.47554 12.4933 1.24112 12.2589C1.0067 12.0245 0.875 11.7065 0.875 11.375V2.625M17.125 2.625C17.125 2.29348 16.9933 1.97554 16.7589 1.74112C16.5245 1.5067 16.2065 1.375 15.875 1.375H2.125C1.79348 1.375 1.47554 1.5067 1.24112 1.74112C1.0067 1.97554 0.875 2.29348 0.875 2.625M17.125 2.625L9.71125 7.7575C9.50226 7.90211 9.25415 7.97958 9 7.97958C8.74585 7.97958 8.49774 7.90211 8.28875 7.7575L0.875 2.625" stroke="#B6B6B6" stroke-width="1.375" stroke-linecap="round" stroke-linejoin="round"/>
</svg>
