<svg width="16" height="16" viewBox="0 0 16 16" fill="none" xmlns="http://www.w3.org/2000/svg">
<g clip-path="url(#clip0_3824_38486)">
<path d="M7.26042 11.7049H8.7419V7.26042H7.26042V11.7049ZM8.00116 5.77893C8.21103 5.77893 8.38708 5.70782 8.52931 5.5656C8.67153 5.42338 8.74239 5.24758 8.7419 5.03819C8.7419 4.82832 8.67079 4.65227 8.52856 4.51005C8.38634 4.36782 8.21054 4.29696 8.00116 4.29745C7.79128 4.29745 7.61523 4.36856 7.47301 4.51079C7.33079 4.65301 7.25992 4.82881 7.26042 5.03819C7.26042 5.24807 7.33153 5.42412 7.47375 5.56634C7.61597 5.70856 7.79177 5.77943 8.00116 5.77893ZM8.00116 15.4086C6.97647 15.4086 6.0135 15.214 5.11227 14.8249C4.21103 14.4357 3.42708 13.9081 2.76042 13.2419C2.09375 12.5752 1.5661 11.7913 1.17745 10.89C0.788812 9.98881 0.594244 9.02585 0.59375 8.00116C0.59375 6.97647 0.788318 6.0135 1.17745 5.11227C1.56659 4.21103 2.09424 3.42708 2.76042 2.76042C3.42708 2.09375 4.21103 1.5661 5.11227 1.17745C6.0135 0.788812 6.97647 0.594244 8.00116 0.59375C9.02585 0.59375 9.98881 0.788318 10.89 1.17745C11.7913 1.56659 12.5752 2.09424 13.2419 2.76042C13.9086 3.42708 14.4365 4.21103 14.8256 5.11227C15.2147 6.0135 15.4091 6.97647 15.4086 8.00116C15.4086 9.02585 15.214 9.98881 14.8249 10.89C14.4357 11.7913 13.9081 12.5752 13.2419 13.2419C12.5752 13.9086 11.7913 14.4365 10.89 14.8256C9.98881 15.2147 9.02585 15.4091 8.00116 15.4086Z" fill="#3A5A9B"/>
</g>
<defs>
<clipPath id="clip0_3824_38486">
<rect width="16" height="16" fill="white"/>
</clipPath>
</defs>
</svg>
