<svg width="24" height="24" viewBox="0 0 24 24" fill="none" xmlns="http://www.w3.org/2000/svg">
<path d="M16.6291 16.6289H13.8513C13.3421 16.6289 12.9254 16.2122 12.9254 15.703C12.9254 15.1937 13.3421 14.7771 13.8513 14.7771H16.6291C18.1569 14.7771 19.4069 13.5271 19.4069 11.9993C19.4069 10.4715 18.1569 9.2215 16.6291 9.2215H13.8513C13.3421 9.2215 12.9254 8.80483 12.9254 8.29557C12.9254 7.78631 13.3421 7.36965 13.8513 7.36965H16.6291C19.1847 7.36965 21.2588 9.44372 21.2588 11.9993C21.2588 14.5548 19.1847 16.6289 16.6291 16.6289ZM8.29579 11.9993C8.29579 11.49 8.71246 11.0734 9.22172 11.0734H14.7773C15.2865 11.0734 15.7032 11.49 15.7032 11.9993C15.7032 12.5085 15.2865 12.9252 14.7773 12.9252H9.22172C8.71246 12.9252 8.29579 12.5085 8.29579 11.9993ZM10.1476 9.2215H7.36986C5.84209 9.2215 4.59209 10.4715 4.59209 11.9993C4.59209 13.5271 5.84209 14.7771 7.36986 14.7771H10.1476C10.6569 14.7771 11.0736 15.1937 11.0736 15.703C11.0736 16.2122 10.6569 16.6289 10.1476 16.6289H7.36986C4.81431 16.6289 2.74023 14.5548 2.74023 11.9993C2.74023 9.44372 4.81431 7.36965 7.36986 7.36965H10.1476C10.6569 7.36965 11.0736 7.78631 11.0736 8.29557C11.0736 8.80483 10.6569 9.2215 10.1476 9.2215Z" fill="#B6B6B6"/>
</svg>
