<svg width="36" height="28" viewBox="0 0 36 28" fill="none" xmlns="http://www.w3.org/2000/svg">
<rect width="36" height="28" rx="2" fill="#F5F5F5"/>
<path d="M18.5481 9.82349C18.4251 9.94655 18.356 10.1134 18.356 10.2875C18.356 10.4615 18.4251 10.6284 18.5481 10.7514L21.7965 13.9999L18.5481 17.2483C18.4286 17.3721 18.3624 17.5378 18.3639 17.7099C18.3654 17.882 18.4344 18.0466 18.5561 18.1682C18.6778 18.2899 18.8424 18.3589 19.0144 18.3604C19.1865 18.3619 19.3523 18.2958 19.476 18.1762L23.1884 14.4638C23.3115 14.3408 23.3806 14.1739 23.3806 13.9999C23.3806 13.8259 23.3115 13.659 23.1884 13.5359L19.476 9.82349C19.353 9.70046 19.1861 9.63135 19.0121 9.63135C18.8381 9.63135 18.6712 9.70046 18.5481 9.82349Z" fill="#2D3842"/>
<path d="M12.9429 9.82447C12.8198 9.94753 12.7507 10.1144 12.7507 10.2884C12.7507 10.4624 12.8198 10.6293 12.9429 10.7524L16.1913 14.0008L12.9429 17.2493C12.8233 17.373 12.7572 17.5388 12.7587 17.7109C12.7602 17.883 12.8292 18.0475 12.9509 18.1692C13.0725 18.2909 13.2371 18.3599 13.4092 18.3614C13.5813 18.3629 13.747 18.2968 13.8708 18.1772L17.5832 14.4648C17.7062 14.3417 17.7754 14.1749 17.7754 14.0008C17.7754 13.8268 17.7062 13.6599 17.5832 13.5369L13.8708 9.82447C13.7477 9.70144 13.5809 9.63232 13.4068 9.63232C13.2328 9.63232 13.0659 9.70144 12.9429 9.82447Z" fill="#2D3842"/>
</svg>
