<svg width="36" height="28" viewBox="0 0 36 28" fill="none" xmlns="http://www.w3.org/2000/svg">
<rect width="36" height="28" rx="2" fill="#F5F5F5"/>
<path d="M15.9697 9.22691C15.8291 9.36756 15.7501 9.55829 15.7501 9.75716C15.7501 9.95604 15.8291 10.1468 15.9697 10.2874L19.6822 13.9999L15.9697 17.7124C15.8331 17.8539 15.7575 18.0433 15.7592 18.24C15.7609 18.4366 15.8398 18.6247 15.9788 18.7638C16.1179 18.9028 16.306 18.9817 16.5027 18.9834C16.6993 18.9851 16.8888 18.9095 17.0302 18.7729L21.273 14.5302C21.4136 14.3895 21.4926 14.1988 21.4926 13.9999C21.4926 13.801 21.4136 13.6103 21.273 13.4697L17.0302 9.22691C16.8896 9.08631 16.6988 9.00732 16.5 9.00732C16.3011 9.00732 16.1104 9.08631 15.9697 9.22691Z" fill="#2D3842"/>
</svg>
