<svg width="28" height="28" viewBox="0 0 28 28" fill="none" xmlns="http://www.w3.org/2000/svg">
<mask id="path-1-inside-1_92_26223" fill="white">
<path d="M0 0H22C25.3137 0 28 2.68629 28 6V22C28 25.3137 25.3137 28 22 28H0V0Z"/>
</mask>
<path d="M0 0H22C25.3137 0 28 2.68629 28 6V22C28 25.3137 25.3137 28 22 28H0V0Z" fill="#FAFAFA"/>
<path d="M0 0V-1H-1V0H0ZM0 28H-1V29H0V28ZM0 1H22V-1H0V1ZM27 6V22H29V6H27ZM22 27H0V29H22V27ZM1 28V0H-1V28H1ZM27 22C27 24.7614 24.7614 27 22 27V29C25.866 29 29 25.866 29 22H27ZM22 1C24.7614 1 27 3.23858 27 6H29C29 2.13401 25.866 -1 22 -1V1Z" fill="#2D3842" fill-opacity="0.2" mask="url(#path-1-inside-1_92_26223)"/>
<path d="M11.9696 9.22691C11.829 9.36756 11.75 9.55829 11.75 9.75716C11.75 9.95604 11.829 10.1468 11.9696 10.2874L15.6821 13.9999L11.9696 17.7124C11.833 17.8539 11.7574 18.0433 11.7591 18.24C11.7608 18.4366 11.8397 18.6247 11.9787 18.7638C12.1178 18.9028 12.3059 18.9817 12.5025 18.9834C12.6992 18.9851 12.8886 18.9095 13.0301 18.7729L17.2728 14.5302C17.4134 14.3895 17.4924 14.1988 17.4924 13.9999C17.4924 13.801 17.4134 13.6103 17.2728 13.4697L13.0301 9.22691C12.8894 9.08631 12.6987 9.00732 12.4998 9.00732C12.301 9.00732 12.1102 9.08631 11.9696 9.22691Z" fill="#2D3842" fill-opacity="0.2"/>
</svg>
