<svg width="28" height="28" viewBox="0 0 28 28" fill="none" xmlns="http://www.w3.org/2000/svg">
<mask id="path-1-inside-1_1378_16983" fill="white">
<path d="M0 6C0 2.68629 2.68629 0 6 0H28V28H7C3.13401 28 0 24.866 0 21V6Z"/>
</mask>
<path d="M0 6C0 2.68629 2.68629 0 6 0H28V28H7C3.13401 28 0 24.866 0 21V6Z" fill="#FAFAFA"/>
<path d="M-1 6C-1 2.13401 2.13401 -1 6 -1H28V1H6C3.23858 1 1 3.23858 1 6H-1ZM28 29H7C2.58172 29 -1 25.4183 -1 21H1C1 24.3137 3.68629 27 7 27H28V29ZM7 29C2.58172 29 -1 25.4183 -1 21V6C-1 2.13401 2.13401 -1 6 -1V1C3.23858 1 1 3.23858 1 6V21C1 24.3137 3.68629 27 7 27V29ZM28 0V28V0Z" fill="#2D3842" fill-opacity="0.2" mask="url(#path-1-inside-1_1378_16983)"/>
<path d="M16.0304 9.22691C16.171 9.36756 16.25 9.55829 16.25 9.75716C16.25 9.95604 16.171 10.1468 16.0304 10.2874L12.3179 13.9999L16.0304 17.7124C16.167 17.8539 16.2426 18.0433 16.2409 18.24C16.2392 18.4366 16.1603 18.6247 16.0213 18.7638C15.8822 18.9028 15.6941 18.9817 15.4975 18.9834C15.3008 18.9851 15.1114 18.9095 14.9699 18.7729L10.7272 14.5302C10.5866 14.3895 10.5076 14.1988 10.5076 13.9999C10.5076 13.801 10.5866 13.6103 10.7272 13.4697L14.9699 9.22691C15.1106 9.08631 15.3013 9.00732 15.5002 9.00732C15.699 9.00732 15.8898 9.08631 16.0304 9.22691Z" fill="#2D3842" fill-opacity="0.2"/>
</svg>
