<svg width="36" height="28" viewBox="0 0 36 28" fill="none" xmlns="http://www.w3.org/2000/svg">
<rect width="36" height="28" rx="2" fill="#F5F5F5"/>
<path d="M20.0303 9.22691C20.1709 9.36756 20.2499 9.55829 20.2499 9.75716C20.2499 9.95604 20.1709 10.1468 20.0303 10.2874L16.3178 13.9999L20.0303 17.7124C20.1669 17.8539 20.2425 18.0433 20.2408 18.24C20.2391 18.4366 20.1602 18.6247 20.0212 18.7638C19.8821 18.9028 19.694 18.9817 19.4973 18.9834C19.3007 18.9851 19.1112 18.9095 18.9698 18.7729L14.727 14.5302C14.5864 14.3895 14.5074 14.1988 14.5074 13.9999C14.5074 13.801 14.5864 13.6103 14.727 13.4697L18.9698 9.22691C19.1104 9.08631 19.3012 9.00732 19.5 9.00732C19.6989 9.00732 19.8896 9.08631 20.0303 9.22691Z" fill="#2D3842"/>
</svg>
