<svg width="36" height="28" viewBox="0 0 36 28" fill="none" xmlns="http://www.w3.org/2000/svg">
<rect width="36" height="28" rx="2" fill="#F5F5F5"/>
<path d="M17.4519 9.82349C17.5749 9.94655 17.644 10.1134 17.644 10.2875C17.644 10.4615 17.5749 10.6284 17.4519 10.7514L14.2035 13.9999L17.4519 17.2483C17.5714 17.3721 17.6376 17.5378 17.6361 17.7099C17.6346 17.882 17.5656 18.0466 17.4439 18.1682C17.3222 18.2899 17.1576 18.3589 16.9856 18.3604C16.8135 18.3619 16.6477 18.2958 16.524 18.1762L12.8116 14.4638C12.6885 14.3408 12.6194 14.1739 12.6194 13.9999C12.6194 13.8259 12.6885 13.659 12.8116 13.5359L16.524 9.82349C16.647 9.70046 16.8139 9.63135 16.9879 9.63135C17.1619 9.63135 17.3288 9.70046 17.4519 9.82349Z" fill="#2D3842"/>
<path d="M23.0571 9.82447C23.1802 9.94753 23.2493 10.1144 23.2493 10.2884C23.2493 10.4624 23.1802 10.6293 23.0571 10.7524L19.8087 14.0008L23.0571 17.2493C23.1767 17.373 23.2428 17.5388 23.2413 17.7109C23.2398 17.883 23.1708 18.0475 23.0491 18.1692C22.9275 18.2909 22.7629 18.3599 22.5908 18.3614C22.4187 18.3629 22.253 18.2968 22.1292 18.1772L18.4168 14.4648C18.2938 14.3417 18.2246 14.1749 18.2246 14.0008C18.2246 13.8268 18.2938 13.6599 18.4168 13.5369L22.1292 9.82447C22.2523 9.70144 22.4191 9.63232 22.5932 9.63232C22.7672 9.63232 22.9341 9.70144 23.0571 9.82447Z" fill="#2D3842"/>
</svg>
