<svg width="16" height="16" viewBox="0 0 16 16" fill="none" xmlns="http://www.w3.org/2000/svg">
<path d="M2.66667 3.33203H4.66667V2.66536C4.66667 2.31174 4.80714 1.9726 5.05719 1.72256C5.30724 1.47251 5.64638 1.33203 6 1.33203H10C10.3536 1.33203 10.6928 1.47251 10.9428 1.72256C11.1929 1.9726 11.3333 2.31174 11.3333 2.66536V3.33203H13.3333C13.5101 3.33203 13.6797 3.40227 13.8047 3.52729C13.9298 3.65232 14 3.82189 14 3.9987C14 4.17551 13.9298 4.34508 13.8047 4.4701C13.6797 4.59513 13.5101 4.66536 13.3333 4.66536H12.6667V13.332C12.6667 13.6857 12.5262 14.0248 12.2761 14.2748C12.0261 14.5249 11.687 14.6654 11.3333 14.6654H4.66667C4.31304 14.6654 3.97391 14.5249 3.72386 14.2748C3.47381 14.0248 3.33333 13.6857 3.33333 13.332V4.66536H2.66667C2.48986 4.66536 2.32029 4.59513 2.19526 4.4701C2.07024 4.34508 2 4.17551 2 3.9987C2 3.82189 2.07024 3.65232 2.19526 3.52729C2.32029 3.40227 2.48986 3.33203 2.66667 3.33203ZM4.66667 4.66536V13.332H11.3333V4.66536H4.66667ZM6 3.33203H10V2.66536H6V3.33203ZM6 5.9987H7.33333V11.9987H6V5.9987ZM8.66667 5.9987H10V11.9987H8.66667V5.9987Z" fill="#B6B6B6"/>
</svg>
